<?xml version="1.0" standalone="no"?>
<!DOCTYPE svg PUBLIC "-//W3C//DTD SVG 20010904//EN"
 "http://www.w3.org/TR/2001/REC-SVG-20010904/DTD/svg10.dtd">
<svg version="1.0" xmlns="http://www.w3.org/2000/svg"
 width="300.000000pt" height="306.000000pt" viewBox="0 0 300.000000 306.000000"
 preserveAspectRatio="xMidYMid meet">
<metadata>
Created by potrace 1.11, written by Peter Selinger 2001-2013
</metadata>
<g transform="translate(0.000000,306.000000) scale(0.100000,-0.100000)"
fill="#000000" stroke="none">
<path d="M0 1980 c0 -639 4 -1080 9 -1080 5 0 7 8 4 19 -6 25 15 38 24 14 10
-27 39 -63 46 -57 11 11 78 -38 73 -53 -3 -8 2 -16 12 -19 9 -3 25 -10 35 -15
10 -5 21 -8 25 -5 4 2 12 -2 19 -9 10 -10 7 -14 -13 -19 -34 -9 -30 -26 6 -26
17 0 39 -9 50 -20 12 -12 22 -15 26 -9 4 8 10 7 17 0 14 -14 -11 -41 -41 -44
-11 0 -19 -4 -17 -8 3 -3 -4 -14 -14 -23 -16 -15 -20 -15 -23 -3 -2 11 -9 12
-27 6 -23 -9 -23 -10 -6 -29 10 -11 27 -20 39 -20 17 0 14 -7 -22 -43 -34 -34
-42 -50 -42 -79 0 -20 5 -40 10 -43 22 -14 8 -25 -31 -25 -49 0 -43 -17 9 -26
67 -12 70 -23 7 -24 -33 0 -66 -4 -72 -8 -16 -10 -85 -3 -78 8 3 4 -2 13 -10
20 -13 11 -15 5 -15 -39 0 -29 4 -51 11 -51 6 0 8 9 4 20 -5 17 -2 20 24 20
16 0 36 -3 45 -6 19 -7 21 -33 4 -35 -7 -1 3 -5 22 -9 l35 -7 -30 -12 -30 -13
28 -15 c16 -8 35 -12 43 -9 7 3 31 -1 53 -9 22 -7 49 -11 60 -8 12 3 21 1 21
-6 0 -6 7 -11 15 -11 18 0 20 -27 2 -33 -6 -2 -8 -8 -4 -13 4 -5 12 -2 17 6 7
11 15 8 44 -14 20 -15 36 -22 36 -17 0 7 27 11 69 11 80 0 133 -9 125 -21 -3
-5 7 -9 23 -8 25 0 26 1 8 9 -25 11 2 12 30 1 18 -7 17 -8 -5 -13 -14 -4 -146
-6 -294 -7 -148 0 -271 -3 -274 -6 -3 -3 37 -5 89 -5 52 0 101 -5 109 -10 19
-12 -167 -13 -225 -1 -22 5 -34 9 -26 10 8 0 11 4 7 8 -4 4 14 13 41 19 l48
12 -62 1 -63 1 0 -35 0 -35 306 0 c278 0 915 24 939 35 6 3 -56 3 -137 0 -93
-3 -149 -1 -153 5 -3 5 -17 10 -31 10 -14 0 -22 -4 -19 -10 4 -6 -38 -9 -115
-7 -110 2 -118 3 -83 14 21 6 46 12 56 12 10 1 16 5 12 10 -5 10 23 9 158 -4
44 -4 67 -2 67 5 0 5 -9 10 -20 10 -28 0 -25 13 6 27 45 21 177 -7 166 -35 -1
-4 6 -8 18 -10 11 -2 20 1 20 7 0 17 26 13 66 -10 23 -12 48 -19 68 -16 28 3
27 4 -9 6 -36 3 -37 4 -15 11 18 6 20 8 7 9 -10 1 -16 5 -12 11 3 5 12 7 20 3
8 -3 15 0 15 6 0 6 -11 11 -24 11 -13 0 -30 8 -37 17 -12 15 -12 16 3 11 10
-4 19 -1 22 8 12 30 6 42 -24 48 -28 5 -29 7 -18 26 7 11 20 20 28 21 8 0 -4
9 -28 20 -36 15 -42 22 -37 39 5 16 2 20 -17 20 l-23 1 25 14 25 14 -27 1
c-18 0 -28 5 -28 15 0 7 -8 18 -17 24 -10 5 -16 13 -13 18 3 4 -5 9 -16 11
-16 2 -20 8 -17 22 3 12 -3 23 -16 32 -12 7 -21 17 -21 23 0 5 -19 19 -42 30
-22 11 -43 27 -45 35 -8 30 -45 44 -110 41 -68 -2 -94 14 -38 25 20 3 39 4 42
0 4 -3 15 2 26 11 18 17 19 17 28 0 6 -9 19 -17 29 -17 11 0 20 -7 20 -15 0
-9 6 -12 15 -9 8 4 15 1 15 -4 0 -6 9 -14 20 -17 11 -4 18 -10 15 -15 -6 -9 7
-14 65 -26 19 -3 37 -10 40 -14 3 -4 34 -16 70 -27 55 -16 69 -25 94 -60 33
-48 38 -103 16 -189 -12 -45 -11 -55 5 -92 11 -23 24 -42 29 -42 6 -1 29 -14
51 -30 56 -42 85 -53 100 -40 7 6 30 9 51 6 43 -4 74 7 74 28 0 8 11 17 25 20
13 3 41 21 61 38 31 27 36 29 30 12 -12 -40 1 -52 52 -48 26 2 67 4 92 4 l45
2 -35 13 -35 13 60 1 c34 1 65 5 70 10 12 11 155 19 155 9 0 -4 -19 -9 -42
-11 -24 -2 -2 -2 47 1 82 4 293 38 253 41 -10 0 -18 5 -18 10 0 11 98 26 107
17 4 -3 -9 -6 -28 -7 -26 0 -29 -2 -15 -8 11 -4 42 -3 70 1 28 5 87 15 131 23
92 15 54 19 -46 5 -48 -7 -83 -6 -135 4 -42 9 -57 14 -38 15 22 1 34 8 44 25
14 28 51 41 62 23 6 -9 8 -8 8 3 0 12 9 15 40 12 37 -4 39 -6 23 -17 -30 -22
-6 -29 45 -14 46 15 46 16 24 28 -37 20 -127 41 -130 30 -4 -11 -52 -12 -52
-1 0 5 -23 9 -51 9 -36 0 -55 6 -60 16 -16 28 -189 46 -299 32 -41 -6 -46 -4
-57 20 -9 21 -9 27 6 35 15 7 17 19 13 64 -4 47 -2 56 11 56 10 0 14 6 11 14
-10 25 26 26 73 1 50 -27 68 -31 78 -15 11 17 -41 63 -64 57 -12 -3 -24 -1
-27 4 -3 5 -9 7 -14 4 -14 -9 -50 14 -50 30 0 8 6 15 13 15 9 0 9 2 -1 9 -9 6
-15 36 -17 92 -2 67 1 93 17 127 14 31 24 42 34 38 9 -3 20 -6 25 -6 5 0 18
-9 29 -20 15 -15 18 -25 10 -44 -9 -25 -8 -71 3 -82 3 -3 3 -12 0 -20 -3 -8 1
-14 11 -14 9 0 13 6 10 14 -3 8 4 20 15 28 12 8 18 17 15 20 -11 12 53 17 106
9 l55 -9 -52 -1 c-54 -1 -67 -13 -41 -39 16 -16 178 -16 213 0 29 13 49 2 22
-13 -21 -12 -22 -29 -2 -29 8 0 15 -7 15 -16 0 -11 5 -14 18 -9 9 3 30 9 46
12 23 5 25 8 12 15 -26 15 -19 36 29 85 31 33 46 42 49 32 2 -8 7 -22 10 -31
3 -10 2 -18 -2 -18 -4 0 -8 -35 -10 -77 -2 -42 -8 -83 -14 -90 -8 -10 -6 -13
6 -13 10 0 16 9 16 25 0 23 4 25 40 25 l40 0 0 55 c0 53 1 55 28 55 15 1 50 7
77 15 l50 15 -81 -3 c-62 -1 -80 1 -77 10 3 8 26 13 57 14 28 1 65 5 81 9 l30
8 -30 2 c-16 1 -39 5 -50 10 -17 7 -14 9 15 11 28 1 23 3 -20 9 -30 3 -75 6
-100 5 -25 -1 -84 -3 -132 -4 -71 -1 -88 -4 -88 -16 0 -19 -4 -19 -43 1 -24
13 -61 17 -154 17 -112 1 -123 2 -123 19 0 12 8 18 23 19 12 0 76 2 142 3 218
6 313 3 340 -11 13 -7 51 -8 110 -2 50 4 96 8 103 8 7 1 10 6 6 12 -3 6 -16 8
-28 5 -11 -3 -45 -3 -74 1 -46 5 -50 7 -35 19 17 13 17 13 -2 14 -24 1 -67 30
-44 30 8 0 27 -7 42 -15 15 -8 43 -17 62 -21 58 -11 42 18 -24 44 -62 23 -116
29 -126 12 -3 -5 -1 -10 4 -10 6 0 11 -4 11 -10 0 -5 -7 -10 -15 -10 -8 0 -15
6 -15 14 0 22 -88 26 -114 5 -12 -9 -28 -19 -36 -22 -8 -3 4 -6 28 -6 23 -1
42 -5 42 -11 0 -11 -1 -11 -120 -16 -41 -2 -84 -4 -95 -5 -56 -6 -105 2 -105
16 0 13 4 14 21 4 25 -13 189 -3 189 12 0 5 -9 9 -19 9 -25 0 -38 20 -14 21
10 1 0 5 -22 8 -31 5 -39 10 -37 24 4 21 -33 37 -71 30 -27 -5 -38 -23 -14
-23 7 -1 4 -7 -7 -15 -14 -11 -21 -11 -31 -2 -14 13 -9 31 6 22 5 -4 9 -2 9 3
0 5 -18 12 -41 15 -50 7 -56 12 -36 32 19 18 39 19 55 3 8 -8 12 -8 12 -1 0 6
-13 16 -30 22 -30 10 -40 36 -17 44 10 3 10 9 0 26 -17 27 -16 41 1 41 12 0
13 11 9 55 -6 53 -5 55 18 56 13 1 29 0 34 -1 18 -5 178 -30 262 -41 59 -7 88
-7 103 1 16 9 20 8 20 -5 0 -8 5 -15 10 -15 6 0 10 -8 10 -17 0 -13 3 -14 12
-5 24 24 38 13 38 -28 0 -37 2 -40 28 -39 23 2 24 2 5 6 -16 3 -23 11 -23 29
0 20 5 24 28 24 58 -1 156 -20 163 -32 5 -7 9 398 9 900 l0 912 -589 0 -589 0
-6 -37 c-3 -21 -8 -114 -12 -208 -6 -163 -9 -204 -17 -211 -1 -2 -16 8 -31 23
-23 21 -27 31 -22 56 3 16 7 84 8 151 1 108 2 114 8 51 l6 -70 2 83 c1 55 -2
82 -9 82 -8 0 -8 4 0 13 8 10 7 17 -1 25 -9 9 -7 15 8 27 17 13 -85 14 -868
15 l-888 0 0 -1080z m862 683 c56 -22 154 -83 250 -155 l77 -59 -21 -34 c-11
-19 -25 -35 -30 -35 -6 0 -27 13 -47 29 -77 61 -161 89 -241 82 -23 -2 -50
-54 -50 -98 0 -38 15 -92 64 -228 l25 -70 1 42 c0 23 -4 45 -10 48 -5 3 -10
14 -10 23 0 10 9 4 25 -18 14 -19 26 -30 26 -24 1 5 5 -9 9 -31 l7 -40 2 38
c0 21 8 45 16 53 8 9 15 11 15 5 0 -6 6 -11 14 -11 15 0 29 27 21 40 -3 4 2
13 10 20 8 7 12 17 8 23 -3 6 -1 7 5 3 8 -5 12 1 13 16 2 22 2 22 6 -2 5 -22
6 -21 19 15 19 54 20 53 -31 50 -59 -4 -58 9 3 22 l47 10 -67 2 c-37 0 -70 6
-73 11 -3 6 1 10 9 10 9 0 16 4 16 8 0 18 -26 32 -58 32 -19 0 -31 4 -27 10 3
6 2 10 -4 10 -18 0 -41 -44 -41 -77 0 -18 -4 -33 -10 -33 -13 0 -13 66 0 90
19 35 43 41 106 24 74 -19 198 -99 189 -123 -5 -13 -4 -14 6 -3 15 14 73 17
64 2 -4 -6 1 -7 11 -3 11 4 13 8 6 11 -7 2 -12 8 -12 13 0 11 52 2 118 -22 60
-22 103 -24 120 -7 8 8 15 8 26 -1 9 -8 16 -9 21 -2 7 13 105 7 133 -8 14 -8
36 -8 73 -1 28 6 61 10 73 9 19 -1 18 -2 -4 -9 -31 -10 -20 -12 50 -10 30 1
60 6 65 12 7 6 -2 8 -27 4 -21 -3 -38 -2 -38 2 0 13 102 42 146 42 65 0 82 -9
95 -49 13 -42 29 -63 29 -39 0 9 -4 20 -10 23 -5 3 -10 16 -10 29 0 17 13 30
53 52 101 56 189 72 240 45 37 -20 50 -87 30 -150 -20 -59 -35 -76 -28 -31 6
33 5 33 -7 13 -13 -21 -13 -20 -14 17 -1 32 1 38 12 30 9 -9 15 -6 24 9 8 16
8 21 -1 21 -8 0 -8 4 -1 13 6 7 7 18 3 25 -9 14 -32 13 -43 -3 -4 -6 -8 -2 -8
8 0 9 -7 18 -15 18 -55 5 -81 4 -90 -1 -5 -4 -25 -10 -44 -14 -19 -3 -42 -14
-51 -24 -15 -15 -15 -18 -1 -29 13 -10 13 -14 3 -21 -10 -7 -5 -14 20 -30 22
-15 27 -22 16 -22 -20 0 -21 -1 -12 -25 5 -12 9 -13 14 -5 5 8 9 7 13 -4 4 -9
2 -16 -3 -16 -33 0 10 -49 43 -50 10 0 25 -6 33 -14 12 -12 9 -16 -16 -25 -17
-5 -30 -14 -30 -18 1 -19 30 -45 45 -40 9 4 15 1 15 -9 0 -8 -4 -12 -10 -9 -5
3 -10 1 -10 -4 0 -6 -5 -11 -11 -11 -6 0 -17 -7 -25 -15 -12 -11 -20 -12 -35
-5 -12 7 -19 7 -19 1 0 -5 18 -17 40 -27 22 -10 40 -21 40 -26 0 -4 -20 2 -45
14 -25 12 -45 28 -45 35 0 7 -4 13 -10 13 -5 0 -10 9 -10 19 0 11 -4 23 -10
26 -5 3 -10 16 -10 28 0 25 -60 117 -76 117 -6 0 -17 7 -24 15 -17 20 -73 29
-98 16 -14 -7 -23 -8 -27 -1 -3 5 -21 10 -40 10 -19 0 -36 4 -39 9 -3 5 -29 7
-58 5 -39 -3 -49 -1 -38 7 11 7 6 8 -20 3 -19 -3 -39 -12 -43 -18 -6 -8 -10
-8 -14 2 -7 17 -38 15 -57 -4 -14 -13 -22 -14 -49 -5 -26 10 -34 9 -43 -3 -9
-13 -13 -13 -31 -1 -18 13 -22 13 -33 0 -14 -17 -48 -19 -69 -6 -9 6 -22 6
-34 -1 -10 -5 -31 -12 -45 -14 -42 -7 -54 -13 -47 -24 3 -5 2 -10 -4 -10 -5 0
-12 4 -15 9 -11 17 -55 -2 -84 -37 -40 -51 -52 -76 -52 -111 0 -28 -4 -31 -52
-46 -28 -8 -59 -15 -68 -15 -22 0 -46 28 -54 64 -10 41 -19 25 -10 -19 10 -53
43 -72 97 -56 95 28 90 30 84 -28 -3 -29 -6 -53 -8 -55 -2 -1 -22 -10 -44 -18
-54 -21 -122 -16 -180 13 -38 19 -52 34 -76 81 -31 61 -35 97 -19 145 9 26 6
41 -26 109 -20 43 -48 124 -62 179 -25 99 -25 100 -7 160 10 34 30 71 46 87
23 24 36 28 83 28 31 0 75 -8 98 -17z m1662 3 c69 -29 105 -175 71 -292 -9
-32 -35 -97 -56 -144 -26 -55 -38 -93 -34 -107 3 -14 1 -23 -6 -23 -8 0 -8 -4
1 -15 6 -8 14 -41 17 -74 12 -124 -61 -197 -197 -196 -48 1 -79 8 -119 26
l-54 26 -2 50 -2 50 54 -24 c65 -30 96 -25 123 19 16 26 18 43 13 90 -5 51 -2
66 25 126 36 79 58 177 48 216 -4 15 -18 39 -31 52 -20 19 -34 24 -77 24 -65
-1 -111 -17 -190 -65 -32 -20 -61 -35 -62 -34 -9 11 -56 89 -56 94 0 3 4 5 9
5 6 0 53 29 105 64 187 127 327 171 420 132z m-1017 -11 c25 -6 59 -60 43 -70
-5 -3 -15 3 -22 15 -7 11 -17 20 -22 20 -4 0 -3 -6 3 -14 6 -7 9 -28 5 -47 -4
-23 -3 -30 4 -20 11 15 27 -2 17 -19 -3 -5 3 -10 14 -10 12 0 21 -4 21 -9 0
-5 9 -11 21 -14 15 -4 19 -2 15 9 -3 8 -1 14 4 14 23 0 7 21 -20 27 -16 3 -30
7 -30 8 0 13 14 35 22 35 5 0 7 -4 4 -9 -3 -5 3 -11 14 -14 13 -3 20 0 20 9 0
8 4 14 10 14 5 0 9 -16 7 -35 -1 -19 -6 -35 -12 -35 -5 0 -4 -4 4 -9 7 -5 11
-15 9 -22 -3 -8 -1 -23 5 -33 7 -15 6 -18 -6 -13 -8 3 -36 9 -62 12 -40 6 -46
10 -42 27 4 14 1 18 -9 14 -8 -3 -14 1 -14 8 0 18 -43 14 -63 -6 -9 -8 -29
-21 -47 -28 -43 -18 -60 -1 -35 36 14 22 15 28 4 35 -11 6 -9 9 7 9 11 0 29 9
39 20 10 11 26 22 36 25 27 9 24 25 -4 25 -26 0 -65 25 -55 35 3 4 15 2 26 -4
12 -6 29 -11 39 -10 15 0 14 2 -4 9 -13 5 -23 11 -23 12 0 6 55 7 77 3z m639
-940 c9 -8 12 -20 8 -26 -4 -8 -3 -9 5 -5 6 4 14 0 17 -8 3 -9 13 -16 21 -16
9 0 13 -8 11 -22 -2 -12 3 -23 12 -25 13 -4 13 -3 0 6 -13 9 -13 11 3 11 34 0
51 -107 24 -144 -17 -24 -43 -11 -83 40 -16 20 -48 51 -72 69 -24 19 -38 36
-32 40 5 3 25 -8 42 -24 18 -17 37 -31 41 -31 4 0 -8 14 -28 31 -40 35 -41 43
-19 87 17 36 28 39 50 17z m-855 -68 c25 -13 60 -28 77 -31 17 -4 42 -18 55
-32 21 -20 33 -24 64 -21 21 3 60 -1 87 -8 53 -14 77 -6 151 50 31 23 138 47
165 37 13 -5 13 -3 1 11 -11 15 -11 17 1 17 22 0 91 -57 78 -65 -5 -3 -10 -2
-10 3 0 5 -11 14 -24 20 -31 14 -41 -6 -20 -37 15 -21 41 -30 28 -10 -4 7 -1
10 7 7 8 -3 20 1 27 9 11 10 17 10 38 -4 14 -9 23 -22 20 -29 -3 -8 -2 -14 3
-14 17 0 30 -51 24 -100 -5 -47 -7 -50 -22 -36 -13 14 -14 20 -2 37 9 15 10
24 2 32 -8 8 -11 6 -11 -6 0 -9 -6 -17 -14 -17 -8 0 -16 -5 -18 -11 -6 -17
-48 -1 -48 17 0 8 -5 12 -11 9 -6 -4 -8 -13 -5 -21 7 -18 1 -18 -18 2 -15 14
-17 14 -22 0 -16 -41 42 -78 119 -77 15 0 25 -4 22 -9 -8 -13 -62 -13 -70 0
-3 5 -19 7 -35 3 -19 -3 -30 -1 -30 5 0 6 -7 9 -15 6 -12 -5 -14 -2 -8 12 6
16 5 17 -9 6 -13 -10 -17 -10 -21 0 -2 7 -8 10 -12 6 -4 -4 -2 -15 6 -25 13
-15 11 -15 -17 1 l-31 19 -74 -63 c-89 -75 -182 -123 -221 -116 -15 3 -27 2
-26 -2 1 -4 -3 -17 -10 -30 -10 -16 -19 -21 -33 -17 -15 5 -19 1 -20 -17 0
-22 -1 -22 -9 -3 -6 17 -10 12 -20 -27 -7 -27 -17 -48 -22 -48 -5 0 -6 -4 -3
-10 4 -7 -3 -7 -19 0 -15 5 -26 6 -26 0 0 -5 -12 -7 -27 -5 -16 2 -52 4 -80 4
-40 1 -53 5 -53 16 0 11 8 13 32 8 22 -4 29 -3 24 5 -4 7 -13 12 -19 12 -16 0
-39 38 -32 50 9 15 -13 48 -37 56 -27 8 -53 33 -44 42 4 3 24 5 44 3 28 -2 43
3 56 18 11 12 15 21 10 21 -20 0 -98 87 -120 135 -37 79 -33 96 40 170 35 35
57 61 49 58 -10 -4 -14 -2 -10 4 12 19 99 7 148 -20z m-1037 -510 c83 -8 121
-16 124 -26 2 -7 -2 -17 -9 -22 -16 -10 -63 -12 -71 -3 -4 3 -48 7 -98 8 -66
2 -94 7 -101 17 -4 8 -14 14 -21 14 -27 2 -68 18 -68 27 0 10 18 9 244 -15z
m421 -198 c4 -5 -4 -10 -17 -11 -13 0 -3 -4 22 -7 25 -3 43 -8 40 -11 -7 -8
33 -50 47 -50 7 0 10 -7 7 -15 -4 -8 -1 -15 5 -15 7 0 31 -18 53 -40 23 -22
49 -40 58 -41 11 0 11 -2 2 -6 -10 -4 -10 -9 3 -23 14 -15 14 -18 0 -30 -8 -7
-13 -16 -10 -20 7 -11 -36 0 -58 15 -14 10 -26 9 -59 -2 -30 -10 -43 -11 -48
-3 -4 6 -28 12 -54 13 -25 1 -46 5 -46 9 0 3 8 20 18 38 17 31 17 31 -8 51
-14 11 -35 28 -47 38 -31 26 -91 45 -106 34 -18 -14 -77 -16 -77 -3 0 6 7 13
15 16 20 8 19 31 -2 43 -13 8 -15 13 -6 18 17 12 261 14 268 2z"/>
</g>
</svg>
