<?xml version="1.0" standalone="no"?>
<!DOCTYPE svg PUBLIC "-//W3C//DTD SVG 20010904//EN"
 "http://www.w3.org/TR/2001/REC-SVG-20010904/DTD/svg10.dtd">
<svg version="1.0" xmlns="http://www.w3.org/2000/svg"
 width="300.000000pt" height="306.000000pt" viewBox="0 0 300.000000 306.000000"
 preserveAspectRatio="xMidYMid meet">
<metadata>
Created by potrace 1.11, written by Peter Selinger 2001-2013
</metadata>
<g transform="translate(0.000000,306.000000) scale(0.100000,-0.100000)"
fill="#000000" stroke="none">
<path d="M1756 3045 c-15 -12 -17 -18 -8 -27 8 -8 9 -15 1 -25 -8 -9 -8 -13 0
-13 7 0 10 -27 9 -82 l-2 -83 -6 70 c-6 63 -7 57 -8 -51 -1 -67 -5 -135 -8
-151 -5 -25 -1 -35 22 -56 15 -15 30 -25 31 -23 8 7 11 48 17 211 4 94 9 187
12 208 5 34 4 37 -18 37 -12 0 -32 -7 -42 -15z"/>
<path d="M681 2652 c-16 -16 -36 -53 -46 -87 -18 -60 -18 -61 7 -160 14 -55
42 -136 62 -179 32 -68 35 -83 26 -109 -16 -48 -12 -84 19 -145 24 -47 38 -62
76 -81 58 -29 126 -34 180 -13 22 8 42 17 44 18 2 2 5 26 8 55 6 58 11 56 -84
28 -54 -16 -87 3 -97 56 -9 44 0 60 10 19 8 -36 32 -64 54 -64 9 0 40 7 68 15
48 15 52 18 52 46 0 35 12 60 52 111 29 35 73 54 84 37 3 -5 10 -9 15 -9 6 0
7 5 4 10 -7 11 5 17 47 24 14 2 35 9 45 14 12 7 25 7 34 1 21 -13 55 -11 69 6
11 13 15 13 33 0 18 -12 22 -12 31 1 9 12 17 13 43 3 27 -9 35 -8 49 5 19 19
50 21 57 4 4 -10 8 -10 14 -2 4 6 24 15 43 18 26 5 31 4 20 -3 -11 -8 -1 -10
38 -7 29 2 55 0 58 -5 3 -5 20 -9 39 -9 19 0 37 -5 40 -10 4 -7 13 -6 27 1 25
13 81 4 98 -16 7 -8 18 -15 24 -15 16 0 76 -92 76 -117 0 -12 5 -25 10 -28 6
-3 10 -15 10 -26 0 -10 5 -19 10 -19 6 0 10 -6 10 -13 0 -7 20 -23 45 -35 25
-12 45 -18 45 -14 0 5 -18 16 -40 26 -22 10 -40 22 -40 27 0 6 7 6 19 -1 15
-7 23 -6 35 5 8 8 19 15 25 15 6 0 11 5 11 11 0 5 5 7 10 4 6 -3 10 1 10 9 0
10 -6 13 -15 9 -15 -5 -44 21 -45 40 0 4 13 13 30 18 25 9 28 13 16 25 -8 8
-23 14 -33 14 -33 1 -76 50 -43 50 5 0 7 7 3 16 -4 11 -8 12 -13 4 -5 -8 -9
-7 -14 5 -9 24 -8 25 12 25 11 0 6 7 -16 22 -25 16 -30 23 -20 30 10 7 10 11
-3 21 -14 11 -14 14 1 29 9 10 32 21 51 24 19 4 39 10 44 14 9 5 35 6 90 1 8
0 15 -9 15 -18 0 -10 4 -14 8 -8 11 16 34 17 43 3 4 -7 3 -18 -3 -25 -7 -9 -7
-13 1 -13 9 0 9 -5 1 -21 -9 -15 -15 -18 -24 -9 -11 8 -13 2 -12 -30 1 -37 1
-38 14 -17 12 20 13 20 7 -13 -7 -45 8 -28 28 31 20 63 7 130 -30 150 -51 27
-139 11 -240 -45 -40 -22 -53 -35 -53 -52 0 -13 5 -26 10 -29 6 -3 10 -14 10
-23 0 -24 -16 -3 -29 39 -13 40 -30 49 -95 49 -44 0 -146 -29 -146 -42 0 -4
17 -5 38 -2 25 4 34 2 27 -4 -5 -6 -35 -11 -65 -12 -70 -2 -81 0 -50 10 22 7
23 8 4 9 -12 1 -45 -3 -73 -9 -37 -7 -59 -7 -73 1 -28 15 -126 21 -133 8 -5
-7 -12 -6 -21 2 -11 9 -18 9 -26 1 -17 -17 -60 -15 -120 7 -66 24 -118 33
-118 22 0 -5 5 -11 12 -13 7 -3 5 -7 -6 -11 -10 -4 -15 -3 -11 3 9 15 -49 12
-64 -2 -10 -11 -11 -10 -6 3 9 24 -115 104 -189 123 -63 17 -87 11 -106 -24
-13 -24 -13 -90 0 -90 6 0 10 15 10 33 0 33 23 77 41 77 6 0 7 -4 4 -10 -4 -6
8 -10 27 -10 32 0 58 -14 58 -32 0 -4 -7 -8 -16 -8 -8 0 -12 -4 -9 -10 3 -5
36 -11 73 -11 l67 -2 -47 -10 c-61 -13 -62 -26 -3 -22 51 3 50 4 31 -50 -13
-36 -14 -37 -19 -15 -4 24 -4 24 -6 2 -1 -15 -5 -21 -13 -16 -6 4 -8 3 -5 -3
4 -6 0 -16 -8 -23 -8 -7 -13 -16 -10 -20 8 -13 -6 -40 -21 -40 -8 0 -14 5 -14
11 0 6 -7 4 -15 -5 -8 -8 -16 -32 -16 -53 l-2 -38 -7 40 c-4 22 -8 36 -9 31 0
-6 -12 5 -26 24 -16 22 -25 28 -25 18 0 -9 5 -20 10 -23 6 -3 10 -25 10 -48
l-1 -42 -25 70 c-49 136 -64 190 -64 228 0 44 27 96 50 98 80 7 164 -21 241
-82 20 -16 41 -29 47 -29 5 0 19 16 30 35 l21 34 -77 59 c-167 126 -260 172
-348 172 -47 0 -60 -4 -83 -28z"/>
<path d="M2359 2666 c-72 -20 -152 -61 -255 -132 -52 -35 -99 -64 -105 -64 -5
0 -9 -2 -9 -5 0 -5 47 -83 56 -94 1 -1 30 14 62 34 79 48 125 64 190 65 91 0
125 -55 103 -165 -7 -33 -26 -90 -43 -127 -27 -60 -30 -75 -25 -126 5 -47 3
-64 -13 -90 -27 -44 -58 -49 -123 -19 l-54 24 2 -50 2 -50 54 -26 c40 -18 71
-25 119 -26 136 -1 209 72 197 196 -3 33 -11 66 -17 74 -9 11 -9 15 -1 15 7 0
9 9 6 23 -4 14 8 52 34 107 78 168 90 274 41 375 -35 72 -107 92 -221 61z"/>
<path d="M1430 2652 c0 -1 10 -7 23 -12 18 -7 19 -9 4 -9 -10 -1 -27 4 -39 10
-11 6 -23 8 -26 4 -10 -10 29 -35 55 -35 28 0 31 -16 4 -25 -10 -3 -26 -14
-36 -25 -10 -11 -28 -20 -39 -20 -16 0 -18 -3 -7 -9 11 -7 10 -13 -4 -35 -25
-37 -8 -54 35 -36 18 7 38 20 47 28 20 20 63 24 63 6 0 -7 6 -11 14 -8 10 4
13 0 9 -14 -4 -17 2 -21 42 -27 26 -3 54 -9 62 -12 12 -5 13 -2 6 13 -6 10 -8
25 -5 33 2 7 -2 17 -9 22 -8 5 -9 9 -4 9 6 0 11 16 12 35 2 19 -2 35 -7 35 -6
0 -10 -6 -10 -14 0 -9 -7 -12 -20 -9 -11 3 -17 9 -14 14 3 5 1 9 -4 9 -8 0
-22 -22 -22 -35 0 -1 14 -5 30 -8 27 -6 43 -27 20 -27 -5 0 -7 -6 -4 -14 4
-11 0 -13 -15 -9 -12 3 -21 9 -21 14 0 5 -9 9 -21 9 -11 0 -17 5 -14 10 10 17
-6 34 -17 19 -7 -10 -8 -3 -4 20 4 19 1 40 -5 47 -6 8 -7 14 -3 14 5 0 15 -9
22 -20 7 -12 17 -18 22 -15 16 10 -18 64 -43 70 -22 4 -77 3 -77 -3z"/>
<path d="M2096 1698 c-22 -44 -21 -52 19 -87 20 -17 32 -31 28 -31 -4 0 -23
14 -41 31 -17 16 -37 27 -42 24 -6 -4 8 -21 32 -40 24 -18 56 -49 72 -69 40
-51 66 -64 83 -40 27 37 10 144 -24 144 -16 0 -16 -2 -3 -11 13 -9 13 -10 0
-6 -9 2 -14 13 -12 25 2 14 -2 22 -11 22 -8 0 -18 7 -21 16 -3 8 -11 12 -17 8
-8 -4 -9 -3 -5 5 8 12 -15 41 -33 41 -5 0 -17 -14 -25 -32z"/>
<path d="M1143 1667 c-4 -6 0 -8 10 -4 8 3 -14 -23 -49 -58 -73 -74 -77 -91
-40 -170 22 -48 100 -135 120 -135 5 0 1 -9 -10 -21 -13 -15 -28 -20 -56 -18
-20 2 -40 0 -44 -3 -9 -9 17 -34 44 -42 24 -8 46 -41 37 -56 -7 -12 16 -50 32
-50 6 0 15 -5 19 -12 5 -8 -2 -9 -24 -5 -24 5 -32 3 -32 -8 0 -11 13 -15 53
-16 28 0 64 -2 80 -4 15 -2 27 0 27 5 0 6 11 5 26 0 16 -7 23 -7 19 0 -3 6 -2
10 3 10 5 0 15 21 22 48 10 39 14 44 20 27 8 -19 9 -19 9 3 1 18 5 22 20 17
14 -4 23 1 33 17 7 13 11 26 10 30 -1 4 11 5 26 2 39 -7 132 41 221 116 l74
63 31 -19 c28 -16 30 -16 17 -1 -8 10 -10 21 -6 25 4 4 10 1 12 -6 4 -10 8
-10 21 0 14 11 15 10 9 -6 -6 -14 -4 -17 8 -12 8 3 15 0 15 -6 0 -6 11 -8 30
-5 16 4 32 2 35 -3 8 -13 62 -13 70 0 3 5 -7 9 -22 9 -77 -1 -135 36 -119 77
5 14 7 14 22 0 19 -20 25 -20 18 -2 -3 8 -1 17 5 21 6 3 11 -1 11 -9 0 -18 42
-34 48 -17 2 6 10 11 18 11 8 0 14 8 14 17 0 12 3 14 11 6 8 -8 7 -17 -2 -32
-12 -17 -11 -23 2 -37 15 -14 17 -11 22 36 6 49 -7 100 -24 100 -5 0 -6 6 -3
14 3 7 -6 20 -20 29 -21 14 -27 14 -38 4 -7 -8 -19 -12 -27 -9 -8 3 -11 0 -7
-7 13 -20 -13 -11 -28 10 -21 31 -11 51 20 37 13 -6 24 -15 24 -20 0 -5 5 -6
10 -3 13 8 -56 65 -78 65 -12 0 -12 -2 -1 -17 12 -14 12 -16 -1 -11 -27 10
-134 -14 -165 -37 -74 -56 -98 -64 -151 -50 -27 7 -66 11 -87 8 -31 -3 -43 1
-64 21 -13 14 -38 28 -55 32 -17 3 -52 18 -77 31 -49 27 -136 39 -148 20z"/>
<path d="M2301 1372 c-22 -4 -23 -7 -18 -58 4 -43 3 -54 -9 -54 -17 0 -18 -14
-1 -41 10 -17 10 -23 0 -26 -23 -8 -13 -34 17 -44 17 -6 30 -16 30 -22 0 -7
-4 -7 -12 1 -16 16 -36 15 -55 -3 -20 -20 -14 -25 36 -32 23 -3 41 -10 41 -15
0 -5 -4 -7 -9 -3 -15 9 -20 -9 -6 -22 10 -9 17 -9 31 2 11 8 14 14 7 15 -24 0
-13 18 14 23 38 7 75 -9 71 -30 -2 -14 6 -19 37 -24 22 -3 32 -7 22 -8 -24 -1
-11 -21 14 -21 10 0 19 -4 19 -9 0 -15 -164 -25 -189 -12 -17 10 -21 9 -21 -4
0 -14 49 -22 105 -16 11 1 54 3 95 5 119 5 120 5 120 16 0 6 -19 10 -42 11
-24 0 -36 3 -28 6 8 3 24 13 36 22 26 21 114 17 114 -5 0 -8 7 -14 15 -14 8 0
15 5 15 10 0 6 -5 10 -11 10 -5 0 -7 5 -4 10 10 17 64 11 126 -12 66 -26 82
-55 24 -44 -19 4 -47 13 -62 21 -15 8 -34 15 -42 15 -23 0 20 -29 44 -30 19
-1 19 -1 2 -14 -15 -12 -11 -14 35 -19 29 -4 63 -4 74 -1 12 3 25 1 28 -5 4
-6 1 -11 -6 -12 -7 0 -53 -4 -103 -8 -59 -6 -97 -5 -110 2 -27 14 -122 17
-340 11 -66 -1 -130 -3 -142 -3 -15 -1 -23 -7 -23 -19 0 -17 11 -18 123 -19
93 0 130 -4 154 -17 39 -20 43 -20 43 -1 0 12 17 15 88 16 48 1 107 3 132 4
25 1 70 -2 100 -5 43 -6 48 -8 20 -9 -29 -2 -32 -4 -15 -11 11 -5 34 -9 50
-10 l30 -2 -30 -8 c-16 -4 -53 -8 -81 -9 -31 -1 -54 -6 -57 -13 -3 -10 15 -12
77 -11 l81 3 -50 -15 c-27 -8 -62 -14 -77 -15 -27 0 -28 -2 -28 -55 l0 -55
-40 0 c-36 0 -40 -2 -40 -25 0 -16 -6 -25 -16 -25 -12 0 -14 3 -6 13 6 7 12
48 14 90 2 42 6 77 10 77 4 0 5 7 3 15 -3 8 -7 23 -10 32 -5 13 -15 8 -50 -30
-48 -49 -55 -70 -29 -85 13 -7 11 -10 -12 -15 -16 -3 -37 -9 -46 -12 -13 -5
-18 -2 -18 9 0 9 -7 16 -15 16 -20 0 -19 17 2 29 27 15 7 26 -22 13 -35 -16
-197 -16 -213 0 -26 26 -13 38 41 39 l52 1 -55 9 c-53 8 -117 3 -106 -9 3 -3
-3 -12 -15 -20 -11 -8 -18 -20 -15 -28 3 -8 -1 -14 -10 -14 -10 0 -14 6 -11
14 3 8 3 17 0 20 -11 11 -12 57 -3 82 8 19 5 29 -10 44 -11 11 -24 20 -29 20
-5 0 -16 3 -25 6 -10 4 -20 -7 -34 -38 -16 -34 -19 -60 -17 -127 2 -56 8 -86
17 -92 10 -7 10 -9 1 -9 -7 0 -13 -7 -13 -15 0 -16 36 -39 50 -30 5 3 11 1 14
-4 3 -5 15 -7 27 -4 23 6 75 -40 64 -57 -10 -16 -28 -12 -78 15 -47 25 -83 24
-73 -1 3 -8 -1 -14 -11 -14 -13 0 -15 -9 -11 -56 4 -45 2 -57 -13 -64 -15 -8
-15 -14 -6 -35 11 -24 16 -26 57 -20 60 8 94 8 160 1 98 -10 130 -17 139 -33
5 -10 24 -16 60 -16 28 0 51 -4 51 -9 0 -11 48 -10 52 1 3 11 93 -10 130 -30
22 -12 22 -13 -24 -28 -51 -15 -75 -8 -45 14 16 11 14 13 -23 17 -31 3 -40 0
-40 -12 0 -11 -2 -12 -8 -3 -11 18 -48 5 -62 -23 -10 -17 -22 -24 -44 -25 -19
-1 -4 -6 38 -15 52 -10 87 -11 135 -4 100 14 138 10 46 -5 -44 -8 -103 -18
-131 -23 -28 -4 -59 -5 -70 -1 -14 6 -11 8 15 8 19 1 32 4 28 7 -9 9 -107 -6
-107 -17 0 -5 8 -10 18 -10 40 -3 -171 -37 -253 -41 -49 -3 -71 -3 -47 -1 23
2 42 7 42 11 0 10 -143 2 -154 -9 -6 -5 -37 -9 -70 -10 l-61 -1 35 -13 35 -13
-45 -2 c-25 0 -66 -2 -92 -4 -51 -4 -66 11 -51 50 5 14 -4 10 -30 -13 -21 -18
-49 -36 -62 -39 -14 -3 -25 -12 -25 -20 0 -21 -31 -32 -74 -28 -21 3 -44 0
-51 -6 -15 -13 -44 -2 -100 40 -22 16 -45 29 -51 30 -5 0 -18 19 -29 42 -16
37 -17 47 -5 92 22 86 17 141 -16 189 -25 35 -39 44 -94 60 -36 11 -67 23 -70
27 -3 4 -21 11 -40 14 -58 12 -71 17 -65 26 3 5 -4 11 -15 15 -11 3 -20 11
-20 17 0 5 -7 8 -15 4 -9 -3 -15 0 -15 9 0 8 -9 15 -20 15 -10 0 -23 8 -29 17
-9 17 -10 17 -28 0 -11 -9 -22 -14 -26 -11 -3 4 -22 3 -42 0 -56 -11 -30 -27
38 -25 65 3 102 -11 110 -41 2 -8 23 -24 45 -35 23 -11 42 -25 42 -30 0 -6 9
-16 21 -23 13 -9 19 -20 16 -32 -3 -14 1 -20 17 -22 11 -2 20 -7 19 -13 -1 -5
5 -14 13 -18 8 -4 14 -15 14 -22 0 -10 10 -15 28 -15 l27 -1 -25 -14 -25 -14
23 -1 c19 0 22 -4 17 -20 -5 -17 1 -24 37 -39 24 -11 36 -20 28 -20 -8 -1 -21
-10 -28 -21 -11 -19 -10 -21 18 -26 30 -6 36 -18 24 -48 -3 -9 -12 -12 -22 -8
-15 5 -15 4 -3 -11 7 -9 24 -17 37 -17 13 0 24 -5 24 -11 0 -6 -7 -9 -15 -6
-8 4 -17 2 -20 -3 -4 -6 2 -10 12 -11 13 -1 11 -3 -7 -9 -22 -7 -21 -8 15 -11
36 -2 37 -3 9 -6 -20 -3 -45 4 -68 16 -40 23 -66 27 -66 10 0 -6 -10 -9 -22
-7 -13 2 -22 8 -22 13 4 30 -114 53 -160 32 -31 -14 -34 -27 -6 -27 11 0 20
-5 20 -10 0 -7 -23 -9 -67 -5 -135 13 -163 14 -158 4 4 -5 -2 -9 -12 -10 -10
0 -35 -6 -56 -12 -35 -11 -27 -12 83 -14 77 -2 119 1 115 7 -3 6 5 10 19 10
14 0 28 -5 31 -10 4 -6 60 -8 153 -5 81 3 143 3 137 0 -24 -11 -661 -35 -939
-35 -265 0 -306 -2 -306 -15 0 -13 173 -15 1499 -15 l1499 0 -2 624 c0 343 -4
627 -7 631 -8 7 -120 24 -161 25 -23 0 -28 -4 -28 -24 0 -18 7 -26 23 -29 19
-4 18 -4 -5 -6 -26 -1 -28 2 -28 39 0 41 -14 52 -38 28 -9 -9 -12 -8 -12 5 0
9 -4 17 -10 17 -5 0 -10 7 -10 15 0 13 -4 14 -20 5 -15 -8 -44 -8 -103 -1
-129 17 -251 36 -262 42 -5 3 -21 3 -34 1z"/>
<path d="M10 1152 c0 -9 41 -25 68 -27 7 0 17 -6 21 -14 7 -10 35 -15 101 -17
50 -1 94 -5 98 -8 8 -9 55 -7 71 3 7 5 11 15 9 22 -3 10 -41 18 -124 26 -226
24 -244 25 -244 15z"/>
<path d="M14 936 c-3 -8 -3 -20 1 -26 3 -5 1 -10 -5 -10 -16 0 -9 -523 8 -543
7 -7 9 -16 6 -19 -8 -9 65 -15 79 -6 6 4 39 8 72 8 63 1 60 12 -7 24 -52 9
-58 26 -9 26 39 0 53 11 31 25 -5 3 -10 23 -10 43 0 29 8 45 42 79 36 36 39
43 22 43 -12 0 -29 9 -39 20 -17 19 -17 20 6 29 18 6 25 5 27 -6 3 -12 7 -12
23 3 10 9 17 20 14 23 -2 4 6 8 17 8 30 3 55 30 41 44 -7 7 -13 8 -17 0 -4 -6
-14 -3 -26 9 -11 11 -33 20 -50 20 -36 0 -40 17 -6 26 20 5 23 9 13 19 -7 7
-15 11 -19 9 -4 -3 -15 0 -25 5 -10 5 -26 12 -35 15 -10 3 -15 11 -12 19 5 15
-62 64 -73 53 -7 -6 -43 37 -43 52 0 18 -20 24 -26 8z"/>
<path d="M407 937 c-9 -5 -7 -10 6 -18 21 -12 22 -35 2 -43 -8 -3 -15 -10 -15
-16 0 -13 59 -11 77 3 15 11 75 -8 106 -34 12 -10 33 -27 47 -38 25 -20 25
-20 8 -51 -10 -18 -18 -35 -18 -38 0 -4 21 -8 46 -9 26 -1 50 -7 54 -13 5 -8
18 -7 48 3 33 11 45 12 59 2 22 -15 65 -26 58 -15 -3 4 2 13 10 20 14 12 14
15 0 30 -13 14 -13 19 -3 23 9 4 9 6 -2 6 -9 1 -35 19 -58 41 -22 22 -46 40
-53 40 -6 0 -9 7 -5 15 3 8 0 15 -7 15 -14 0 -54 42 -47 50 3 3 -15 8 -40 11
-25 3 -35 7 -22 7 13 1 21 6 17 11 -7 12 -251 10 -268 -2z"/>
<path d="M15 290 c4 -12 2 -20 -6 -20 -8 0 -8 -4 2 -16 7 -8 20 -13 30 -11 20
5 47 -9 36 -19 -3 -4 -19 -7 -34 -8 -26 -1 -28 -4 -28 -43 0 -23 -4 -45 -8
-49 -17 -18 -3 -24 56 -25 l62 -1 -48 -12 c-27 -6 -45 -15 -41 -19 4 -4 1 -8
-7 -8 -8 -1 4 -5 26 -10 58 -12 244 -11 225 1 -8 5 -57 10 -109 10 -52 0 -92
2 -89 5 3 3 126 6 274 6 148 1 280 3 294 7 22 5 23 6 5 13 -28 11 -55 10 -30
-1 18 -8 17 -9 -8 -9 -16 -1 -26 3 -23 8 8 12 -45 21 -125 21 -42 0 -69 -4
-69 -11 0 -5 -16 2 -36 17 -29 22 -37 25 -44 14 -5 -8 -13 -11 -17 -6 -4 5 -2
11 5 13 17 6 15 33 -3 33 -8 0 -15 5 -15 11 0 7 -9 9 -21 6 -11 -3 -38 1 -60
8 -22 8 -46 12 -53 9 -8 -3 -27 1 -43 9 l-28 15 30 13 30 12 -35 7 c-19 4 -29
8 -22 9 17 2 15 28 -4 35 -9 3 -29 6 -45 6 -26 0 -29 -3 -24 -20z"/>
</g>
</svg>
